<svg xmlns="http://www.w3.org/2000/svg" xmlns:xlink="http://www.w3.org/1999/xlink" viewBox="0 0 79.5 50.5"><defs><style>.cls-1{fill:#fff;}.cls-2{fill:url(#linear-gradient);}.cls-3{fill:url(#linear-gradient-2);}.cls-4{fill:url(#linear-gradient-3);}.cls-5{fill:url(#linear-gradient-4);}.cls-6{fill:url(#linear-gradient-5);}</style><linearGradient id="linear-gradient" x1="9.11" y1="24.68" x2="70.48" y2="24.68" gradientUnits="userSpaceOnUse"><stop offset="0" stop-color="#b53d79"/><stop offset="0.06" stop-color="#ba3a72"/><stop offset="0.48" stop-color="#d52a48"/><stop offset="0.81" stop-color="#e7202e"/><stop offset="1" stop-color="#ed1c24"/></linearGradient><linearGradient id="linear-gradient-2" x1="42.67" y1="26.28" x2="42.67" y2="26.28" xlink:href="#linear-gradient"/><linearGradient id="linear-gradient-3" x1="9.11" y1="28.12" x2="70.48" y2="28.12" xlink:href="#linear-gradient"/><linearGradient id="linear-gradient-4" x1="15.09" y1="25" x2="60.84" y2="-2.91" gradientUnits="userSpaceOnUse"><stop offset="0" stop-color="#b53d79"/><stop offset="0.07" stop-color="#bc396f"/><stop offset="0.33" stop-color="#d12c4e"/><stop offset="0.57" stop-color="#e12337"/><stop offset="0.8" stop-color="#ea1e29"/><stop offset="1" stop-color="#ed1c24"/></linearGradient><linearGradient id="linear-gradient-5" x1="35.65" y1="11.38" x2="56.31" y2="11.38" xlink:href="#linear-gradient"/></defs><title>Asset 2</title><g id="Layer_2" data-name="Layer 2"><g id="Layer_1-2" data-name="Layer 1"><path class="cls-1" d="M55,19.39a8.49,8.49,0,0,0-2.73.45,12.37,12.37,0,0,0-23.52-1.07c-.25,0-.51,0-.77,0A8.81,8.81,0,0,0,21,22.11l-.47,0a7.15,7.15,0,0,0,0,14.31H55a8.51,8.51,0,0,0,0-17Z"/><line class="cls-2" x1="9.11" y1="30.25" x2="70.48" y2="19.11"/><path class="cls-3" d="M42.67,26.28h0"/><path class="cls-4" d="M70.48,19.11c-2.42,2.54-20.77,21.23-44.67,17.53a43.52,43.52,0,0,1-16.7-6.39"/><path class="cls-5" d="M33,23.93,30.11,6a36.15,36.15,0,0,1-5.23,13.71,35.83,35.83,0,0,1-6.54,7.59Z"/><path class="cls-6" d="M56.31,18.4,37.75,22.77A75.17,75.17,0,0,0,37.53,11,75.07,75.07,0,0,0,35.65,0,48.48,48.48,0,0,1,56.31,18.4Z"/><path class="cls-1" d="M79.5,44.77a5.69,5.69,0,0,0-7.77-5.29A10.78,10.78,0,0,0,52.4,31.54,8.62,8.62,0,0,0,40,39.1H39.7a5.69,5.69,0,0,0-.78,11.32v.05h35.3v0A5.68,5.68,0,0,0,79.5,44.77Z"/><path class="cls-1" d="M37,33.95a7,7,0,0,0-2.43.44C33.31,29.27,29,25.51,24,25.51a11.09,11.09,0,0,0-10.31,7.84c-.23,0-.46,0-.69,0A7.62,7.62,0,0,0,6.78,36.6l-.42,0c-3.51,0-6.36,3.12-6.36,7s2.85,7,6.36,7H37c4.18,0,7.57-3.71,7.57-8.28S41.18,33.95,37,33.95Z"/></g></g></svg>