<svg xmlns="http://www.w3.org/2000/svg" xmlns:xlink="http://www.w3.org/1999/xlink" viewBox="0 0 16 15"><defs><style>.cls-1{fill:#07085d;}.cls-2{fill:url(#linear-gradient);}.cls-3{fill:url(#linear-gradient-2);}</style><linearGradient id="linear-gradient" x1="12.85" y1="5.46" x2="5.06" y2="11.18" gradientUnits="userSpaceOnUse"><stop offset="0" stop-color="#39b54a"/><stop offset="0.13" stop-color="#2dae49"/><stop offset="0.46" stop-color="#14a046"/><stop offset="0.76" stop-color="#059745"/><stop offset="1" stop-color="#009444"/></linearGradient><linearGradient id="linear-gradient-2" x1="7.29" y1="4.25" x2="2.76" y2="7.81" gradientUnits="userSpaceOnUse"><stop offset="0" stop-color="#fff"/><stop offset="1" stop-color="#bcbec0"/></linearGradient></defs><g id="Layer_2" data-name="Layer 2"><g id="Layer_1-2" data-name="Layer 1"><rect class="cls-1" width="16" height="15"/><path class="cls-2" d="M13.36,3.27C11.7,3.56,11.24,5.78,10.59,6,9.61,6.37,9.32,7.49,8,7.74L3,8.93a1.41,1.41,0,0,1-1.13-.32,1.75,1.75,0,0,0,.79,1.15,3,3,0,0,0-.54,1.43c0,.35.35.67.84.71s1.06-.23.93-.55a2.89,2.89,0,0,1-.22-1.1,3.49,3.49,0,0,1,.07-.74v.05a2.51,2.51,0,0,0,0,.73,8.8,8.8,0,0,0,2.56.35,3.74,3.74,0,0,0,.62-.05,3.32,3.32,0,0,1,.59-1,3.84,3.84,0,0,0-.43,1,4.51,4.51,0,0,0-.19.9,1.06,1.06,0,0,0,1.07,1c.63,0,1.36-.35,1.19-.81A4.79,4.79,0,0,1,8.85,10a6.23,6.23,0,0,0,1.47-.85A5.51,5.51,0,0,0,11,8.57l-.1.1a4.09,4.09,0,0,1-.54.65,4.92,4.92,0,0,1,.14,1.28c0,.51.49.81,1.11.62A1.12,1.12,0,0,0,12.49,10a4.74,4.74,0,0,0-1.11-1.92,3.79,3.79,0,0,0,.54-1.21A1.73,1.73,0,0,1,13.6,5.64a3.51,3.51,0,0,0,.86-.11A1.47,1.47,0,0,0,15,5.25C15.77,4.67,15.71,2.86,13.36,3.27Zm1,.7c-.19,0-.24-.12-.45-.19s.26-.14.45-.14.27.07.27.16S14.52,4,14.34,4Z"/><path class="cls-3" d="M2.91,8.76,8,7.59a2.12,2.12,0,0,0,.75-.34,8.82,8.82,0,0,0,.91-.77s.24-.23.38-.33a4.33,4.33,0,0,1,.57-.33c.14,0,.12-.24.09-.36A2,2,0,0,0,9.17,4a2,2,0,0,0-.35,0A1.73,1.73,0,0,0,8.5,4a1.82,1.82,0,0,1,.4-.11,1.66,1.66,0,0,1,.22,0,1.07,1.07,0,0,0-1-.64.86.86,0,0,0-.28,0,1,1,0,0,0-.61.46h0a1.1,1.1,0,0,1,.51-.57A3.1,3.1,0,0,0,5.6,2.2,3.35,3.35,0,0,0,2.37,5.5v.18a3.82,3.82,0,0,0,.35,1.59,3.75,3.75,0,0,1-.5-1.7,1.78,1.78,0,0,0-.91,1.58,1.82,1.82,0,0,0,.52,1.29A1.39,1.39,0,0,0,2.91,8.76Z"/></g></g></svg>